#Comment line ignore any data following # character 
#Hierarchical Translation and Rotation (.htr) file 
[Header]	
#Header keywords are followed by a single value 
FileType HTR		#Single word string
DataType HTRS		#Translation followed by rotation and scale data
FileVersion 1		#integer
NumSegments 64		#integer
NumFrames 3		#integer
DataFrameRate 30		#integer, data frame rate in this file
EulerRotationOrder ZYX
CalibrationUnits mm
RotationUnits Degrees
GlobalAxisofGravity Y
BoneLengthAxis Y
ScaleFactor 1.00
[SegmentNames&Hierarchy]
#CHILD	PARENT
Pinger_Root GLOBAL
Pelvis Pinger_Root
L_Hip Pelvis
R_Hip Pelvis
Rear_Leg01 Pelvis
Spine1 Pelvis
L_Leg01 L_Hip
L_Leg02 L_Leg01
L_Leg03 L_Leg02
L_Foot L_Leg03
L_Toe1_01 L_Foot
L_Toe2_01 L_Foot
L_Toe3_01 L_Foot
planeAlignerLeft L_Foot
L_Toe1_02 L_Toe1_01
L_Toe1_03 L_Toe1_02
L_Toe2_02 L_Toe2_01
L_Toe2_03 L_Toe2_02
L_Toe3_02 L_Toe3_01
L_Toe3_03 L_Toe3_02
planeLockWeightLeft planeAlignerLeft
R_Leg01 R_Hip
R_Leg02 R_Leg01
R_Leg03 R_Leg02
R_Foot R_Leg03
planeAlignerRight R_Foot
R_Toe1_01 R_Foot
R_Toe2_01 R_Foot
R_Toe3_01 R_Foot
planeLockWeightRight planeAlignerRight
R_Toe1_02 R_Toe1_01
R_Toe1_03 R_Toe1_02
R_Toe2_02 R_Toe2_01
R_Toe2_03 R_Toe2_02
R_Toe3_02 R_Toe3_01
R_Toe3_03 R_Toe3_02
Rear_Leg02 Rear_Leg01
Rear_Leg03 Rear_Leg02
Rear_Leg04 Rear_Leg03
Rear_Foot Rear_Leg04
planeAlignerCenter Rear_Foot
Rear_Toe1_01 Rear_Foot
Rear_Toe2_01 Rear_Foot
Rear_Toe3_01 Rear_Foot
planeLockWeightCenter planeAlignerCenter
Rear_Toe1_02 Rear_Toe1_01
Rear_Toe1_03 Rear_Toe1_02
Rear_Toe2_02 Rear_Toe2_01
Rear_Toe2_03 Rear_Toe2_02
Rear_Toe3_02 Rear_Toe3_01
Rear_Toe3_03 Rear_Toe3_02
Back_Bone Spine1
Head Spine1
Motor_Bone Back_Bone
Ping_Mechanism Back_Bone
BN_LookIK Head
bottomMouth Head
L_Mouth01 Head
L_mouthFront Head
mouthGun Head
R_Mouth01 Head
R_mouthFront Head
TopMouth Head
weapon_bone Head
[BasePosition]
#SegmentName Tx, Ty, Tz, Rx, Ry, Rz, BoneLength
Pinger_Root 0.000000 0.000000 0.000000 -90.000000 0.000000 0.000000 10.000000 
Pelvis 0.000000 0.000000 0.000000 0.000000 0.000000 0.000000 10.000000 
L_Hip 0.000000 0.000000 0.000000 0.000000 0.000000 0.000000 10.000000 
R_Hip 0.000000 0.000000 0.000000 0.000000 0.000000 0.000000 10.000000 
Rear_Leg01 0.000000 0.000000 0.000000 0.000000 0.000000 0.000000 10.000000 
Spine1 0.000000 0.000000 0.000000 0.000000 0.000000 0.000000 10.000000 
L_Leg01 0.000000 0.000000 0.000000 0.000000 0.000000 0.000000 10.000000 
L_Leg02 0.000000 0.000000 0.000000 0.000000 0.000000 0.000000 10.000000 
L_Leg03 0.000000 0.000000 0.000000 0.000000 0.000000 0.000000 10.000000 
L_Foot 0.000000 0.000000 0.000000 0.000000 0.000000 0.000000 10.000000 
L_Toe1_01 0.000000 0.000000 0.000000 0.000000 0.000000 0.000000 10.000000 
L_Toe2_01 0.000000 0.000000 0.000000 0.000000 0.000000 0.000000 10.000000 
L_Toe3_01 0.000000 0.000000 0.000000 0.000000 0.000000 0.000000 10.000000 
planeAlignerLeft 0.000000 0.000000 0.000000 0.000000 0.000000 0.000000 10.000000 
L_Toe1_02 0.000000 0.000000 0.000000 0.000000 0.000000 0.000000 10.000000 
L_Toe1_03 0.000000 0.000000 0.000000 0.000000 0.000000 0.000000 10.000000 
L_Toe2_02 0.000000 0.000000 0.000000 0.000000 0.000000 0.000000 10.000000 
L_Toe2_03 0.000000 0.000000 0.000000 0.000000 0.000000 0.000000 10.000000 
L_Toe3_02 0.000000 0.000000 0.000000 0.000000 0.000000 0.000000 10.000000 
L_Toe3_03 0.000000 0.000000 0.000000 0.000000 0.000000 0.000000 10.000000 
planeLockWeightLeft 0.000000 0.000000 0.000000 0.000000 0.000000 0.000000 10.000000 
R_Leg01 0.000000 0.000000 0.000000 0.000000 0.000000 0.000000 10.000000 
R_Leg02 0.000000 0.000000 0.000000 0.000000 0.000000 0.000000 10.000000 
R_Leg03 0.000000 0.000000 0.000000 0.000000 0.000000 0.000000 10.000000 
R_Foot 0.000000 0.000000 0.000000 0.000000 0.000000 0.000000 10.000000 
planeAlignerRight 0.000000 0.000000 0.000000 0.000000 0.000000 0.000000 10.000000 
R_Toe1_01 0.000000 0.000000 0.000000 0.000000 0.000000 0.000000 10.000000 
R_Toe2_01 0.000000 0.000000 0.000000 0.000000 0.000000 0.000000 10.000000 
R_Toe3_01 0.000000 0.000000 0.000000 0.000000 0.000000 0.000000 10.000000 
planeLockWeightRight 0.000000 0.000000 0.000000 0.000000 0.000000 0.000000 10.000000 
R_Toe1_02 0.000000 0.000000 0.000000 0.000000 0.000000 0.000000 10.000000 
R_Toe1_03 0.000000 0.000000 0.000000 0.000000 0.000000 0.000000 10.000000 
R_Toe2_02 0.000000 0.000000 0.000000 0.000000 0.000000 0.000000 10.000000 
R_Toe2_03 0.000000 0.000000 0.000000 0.000000 0.000000 0.000000 10.000000 
R_Toe3_02 0.000000 0.000000 0.000000 0.000000 0.000000 0.000000 10.000000 
R_Toe3_03 0.000000 0.000000 0.000000 0.000000 0.000000 0.000000 10.000000 
Rear_Leg02 0.000000 0.000000 0.000000 0.000000 0.000000 0.000000 10.000000 
Rear_Leg03 0.000000 0.000000 0.000000 0.000000 0.000000 0.000000 10.000000 
Rear_Leg04 0.000000 0.000000 0.000000 0.000000 0.000000 0.000000 10.000000 
Rear_Foot 0.000000 0.000000 0.000000 0.000000 0.000000 0.000000 10.000000 
planeAlignerCenter 0.000000 0.000000 0.000000 0.000000 0.000000 0.000000 10.000000 
Rear_Toe1_01 0.000000 0.000000 0.000000 0.000000 0.000000 0.000000 10.000000 
Rear_Toe2_01 0.000000 0.000000 0.000000 0.000000 0.000000 0.000000 10.000000 
Rear_Toe3_01 0.000000 0.000000 0.000000 0.000000 0.000000 0.000000 10.000000 
planeLockWeightCenter 0.000000 0.000000 0.000000 0.000000 0.000000 0.000000 10.000000 
Rear_Toe1_02 0.000000 0.000000 0.000000 0.000000 0.000000 0.000000 10.000000 
Rear_Toe1_03 0.000000 0.000000 0.000000 0.000000 0.000000 0.000000 10.000000 
Rear_Toe2_02 0.000000 0.000000 0.000000 0.000000 0.000000 0.000000 10.000000 
Rear_Toe2_03 0.000000 0.000000 0.000000 0.000000 0.000000 0.000000 10.000000 
Rear_Toe3_02 0.000000 0.000000 0.000000 0.000000 0.000000 0.000000 10.000000 
Rear_Toe3_03 0.000000 0.000000 0.000000 0.000000 0.000000 0.000000 10.000000 
Back_Bone 0.000000 0.000000 0.000000 0.000000 0.000000 0.000000 10.000000 
Head 0.000000 0.000000 0.000000 0.000000 0.000000 0.000000 10.000000 
Motor_Bone 0.000000 0.000000 0.000000 0.000000 0.000000 0.000000 10.000000 
Ping_Mechanism 0.000000 0.000000 0.000000 0.000000 0.000000 0.000000 10.000000 
BN_LookIK 0.000000 0.000000 0.000000 0.000000 0.000000 0.000000 10.000000 
bottomMouth 0.000000 0.000000 0.000000 0.000000 0.000000 0.000000 10.000000 
L_Mouth01 0.000000 0.000000 0.000000 0.000000 0.000000 0.000000 10.000000 
L_mouthFront 0.000000 0.000000 0.000000 0.000000 0.000000 0.000000 10.000000 
mouthGun 0.000000 0.000000 0.000000 0.000000 0.000000 0.000000 10.000000 
R_Mouth01 0.000000 0.000000 0.000000 0.000000 0.000000 0.000000 10.000000 
R_mouthFront 0.000000 0.000000 0.000000 0.000000 0.000000 0.000000 10.000000 
TopMouth 0.000000 0.000000 0.000000 0.000000 0.000000 0.000000 10.000000 
weapon_bone 0.000000 0.000000 0.000000 0.000000 0.000000 0.000000 10.000000 
#Beginning of Data. Separated by tabs
#Fr	Tx	Ty	Tz	Rx	Ry	Rz	SF
[Pinger_Root]
119 0.000000 0.000000 0.000000 -0.000075 -0.000000 -0.000020 0.000000
120 0.000000 0.000000 0.000000 -0.000075 -0.000000 -0.000020 0.000000
121 0.000000 0.000000 0.000000 -0.000075 -0.000000 -0.000020 0.000000
[Pelvis]
119 -1288.198730 11439.353516 -3981.939209 -92.502403 -71.634026 76.006996 12180.891602
120 -1286.848755 11437.976563 -4168.960938 -92.403412 -71.292809 76.587265 12241.875977
121 -1285.788452 11434.143555 -4318.943848 -92.096352 -70.519066 77.987114 12290.084961
[L_Hip]
119 5.766392 125.831482 872.656799 -178.253357 -81.787712 87.381340 881.701050
120 5.766392 125.831482 872.656799 -178.253326 -81.787636 87.381203 881.701050
121 5.766392 125.831482 872.656799 -178.253296 -81.787758 87.381294 881.701050
[R_Hip]
119 5.765438 125.836372 -872.654907 -1.746678 81.787712 87.381248 881.699829
120 5.765438 125.836372 -872.654907 -1.746701 81.787666 87.381203 881.699829
121 5.765438 125.836372 -872.654907 -1.746714 81.787712 87.381203 881.699829
[Rear_Leg01]
119 -192.298416 -925.602966 -0.001907 149.980957 26.200560 -119.708313 945.367432
120 -192.298416 -925.602966 -0.001907 149.353485 25.629524 -118.775627 945.367432
121 -192.298416 -925.602966 -0.001907 148.402924 23.913464 -118.203804 945.367432
[Spine1]
119 290.604584 5.007505 0.000477 9.218266 -1.082380 -3.053168 290.647736
120 290.604584 5.007505 0.000477 9.155708 -1.168798 -2.612688 290.647736
121 290.604584 5.007505 0.000477 8.991405 -1.403454 -1.438328 290.647736
[L_Leg01]
119 761.932007 -0.002384 -0.069261 -6.937095 -65.145050 46.218330 761.932068
120 761.932007 -0.002384 -0.069261 0.388835 -65.951393 40.214748 761.932068
121 761.932007 -0.002384 -0.069261 9.272241 -65.991791 31.625645 761.932068
[L_Leg02]
119 1441.140503 -0.000954 -0.000715 8.810114 -1.553417 159.869385 1441.140503
120 1441.140503 -0.000954 -0.000715 9.774531 -0.782552 156.680313 1441.140503
121 1441.140503 -0.000954 -0.000715 10.821708 0.420975 154.404358 1441.140503
[L_Leg03]
119 1686.963989 -0.000715 -0.000954 -0.007313 0.005006 112.310989 1686.963989
120 1686.963989 -0.000715 -0.000954 -0.029933 0.014743 118.231300 1686.963989
121 1686.963989 -0.000715 -0.000954 -0.055649 0.024997 125.213966 1686.963989
[L_Foot]
119 3041.570068 -30.715107 11.297464 -28.167437 6.353861 47.264893 3041.746094
120 3041.570068 -30.715107 11.297464 -29.009439 5.393732 47.602268 3041.746094
121 3041.570068 -30.715107 11.297464 -28.643591 4.404525 48.026234 3041.746094
[L_Toe1_01]
119 -188.216690 -224.732346 -21.137953 87.942528 -2.766008 -160.220596 293.899567
120 -188.216690 -224.732346 -21.137953 87.839378 -1.555271 -162.169800 293.899567
121 -188.216690 -224.732346 -21.137953 87.808083 -0.364743 -163.336288 293.899567
[L_Toe2_01]
119 200.746536 -219.926590 148.838394 -77.471245 -13.678682 -47.857857 332.896027
120 200.746536 -219.926590 148.838394 -78.952415 -14.794223 -41.856998 332.896027
121 200.746536 -219.926590 148.838394 -80.680428 -15.817014 -35.281162 332.896027
[L_Toe3_01]
119 188.832520 -219.859131 -191.078659 -104.040115 15.579841 -49.309853 347.140900
120 188.832520 -219.859131 -191.078659 -103.026199 19.662245 -44.305355 347.140900
121 188.832520 -219.859131 -191.078659 -101.452003 24.203619 -38.843143 347.140900
[planeAlignerLeft]
119 0.812531 -811.448792 -0.314951 0.000000 -90.000000 -90.001900 811.449280
120 0.812531 -811.448792 -0.314951 0.000000 -90.000000 -90.001900 811.449280
121 0.812531 -811.448792 -0.314951 0.000000 -90.000000 -90.001900 811.449280
[L_Toe1_02]
119 413.761139 0.000477 0.000000 0.001398 -24.209126 0.001398 413.761139
120 413.761139 0.000477 0.000000 0.001392 -24.961342 0.001392 413.761139
121 413.761139 0.000477 0.000000 0.001386 -25.713547 0.001386 413.761139
[L_Toe1_03]
119 464.317322 0.000358 -0.000089 0.007619 72.277397 0.007619 464.317322
120 464.317322 0.000358 -0.000089 0.005961 67.290466 0.005961 464.317322
121 464.317322 0.000358 -0.000089 0.004601 60.441998 0.004601 464.317322
[L_Toe2_02]
119 342.235809 -0.000477 0.000238 0.001180 -77.811180 0.001180 342.235809
120 342.235809 -0.000477 0.000238 0.004687 -80.221405 0.004687 342.235809
121 342.235809 -0.000477 0.000238 0.004684 -81.181870 0.004684 342.235809
[L_Toe2_03]
119 420.210846 -0.000715 0.000000 -179.996750 76.846130 -179.993225 420.210846
120 420.210846 -0.000715 0.000000 -179.999344 62.907257 -179.995743 420.210846
121 420.210846 -0.000715 0.000000 179.992828 50.345364 -179.999741 420.210846
[L_Toe3_02]
119 329.270111 0.000954 0.000000 0.001176 -81.664734 0.001177 329.270111
120 329.270111 0.000954 0.000000 -0.028012 -83.521042 0.033865 329.270111
121 329.270111 0.000954 0.000000 0.004676 -84.452637 0.004676 329.270111
[L_Toe3_03]
119 439.137451 -0.001907 0.000954 -179.997757 73.525467 -179.994232 439.137451
120 439.137451 -0.001907 0.000954 179.991425 62.727680 179.998627 439.137451
121 439.137451 -0.001907 0.000954 179.992599 53.148773 179.999985 439.137451
[planeLockWeightLeft]
119 -0.000954 0.000238 -0.000305 -0.011826 -0.004376 0.005620 0.001029
120 -0.000954 0.000238 -0.000305 -0.011826 -0.004376 0.005620 0.001029
121 -0.000954 0.000238 -0.000305 -0.011826 -0.004376 0.005620 0.001029
[R_Leg01]
119 761.455627 -0.001907 -0.000358 174.660889 -88.825134 -36.907677 761.455688
120 761.455627 -0.001907 -0.000358 -98.661102 -77.111488 -124.947067 761.455688
121 761.455627 -0.001907 -0.000358 -101.752022 -71.476402 -122.527748 761.455688
[R_Leg02]
119 1441.140625 0.000000 -0.000238 -1.552655 0.186519 151.173279 1441.140625
120 1441.140625 0.000000 -0.000238 -1.435798 0.350797 147.350082 1441.140625
121 1441.140625 0.000000 -0.000238 -1.374143 0.424299 145.334274 1441.140625
[R_Leg03]
119 1686.963989 0.000954 0.001431 0.002309 -0.000422 110.713379 1686.963989
120 1686.963989 0.000954 0.001431 -0.021546 0.006143 103.871490 1686.963989
121 1686.963989 0.000954 0.001431 -0.035640 0.006839 100.650856 1686.963989
[R_Foot]
119 3041.560059 -30.531288 -11.204481 41.683151 -21.953228 100.387024 3041.734131
120 3041.560059 -30.531288 -11.204481 43.089329 -22.088360 97.430344 3041.734131
121 3041.560059 -30.531288 -11.204481 43.782536 -22.103447 96.409218 3041.734131
[planeAlignerRight]
119 -0.635147 -812.270569 -0.364304 0.000000 -89.960434 -90.005180 812.270874
120 -0.635147 -812.270569 -0.364304 0.000000 -89.960434 -90.005180 812.270874
121 -0.635147 -812.270569 -0.364304 0.000000 -89.960434 -90.005180 812.270874
[R_Toe1_01]
119 -188.383347 -224.864899 21.052242 91.407082 1.819394 -158.539505 294.101532
120 -188.383347 -224.864899 21.052242 91.237289 1.487654 -166.496414 294.101532
121 -188.383347 -224.864899 21.052242 91.105576 1.089623 -173.875443 294.101532
[R_Toe2_01]
119 200.637817 -220.002121 -148.787384 -101.892487 11.481441 -50.781960 332.857574
120 200.637817 -220.002121 -148.787384 -99.876930 13.181238 -41.650894 332.857574
121 200.637817 -220.002121 -148.787384 -97.361870 14.646077 -31.556486 332.857574
[R_Toe3_01]
119 188.606735 -220.092957 191.126343 -73.017181 -14.368765 -52.777550 347.192566
120 188.606735 -220.092957 191.126343 -75.128181 -17.708374 -44.097664 347.192566
121 188.606735 -220.092957 191.126343 -77.977898 -20.982857 -34.417358 347.192566
[planeLockWeightRight]
119 -0.000477 0.000000 0.000000 -0.011823 -0.004379 -0.000027 0.000477
120 -0.000477 0.000000 0.000000 -0.011823 -0.004379 -0.000027 0.000477
121 -0.000477 0.000000 0.000000 -0.011823 -0.004379 -0.000027 0.000477
[R_Toe1_02]
119 413.762085 0.000477 -0.000119 0.001401 -23.789431 0.001401 413.762085
120 413.762085 0.000477 -0.000119 0.001411 -22.522282 0.001411 413.762085
121 413.762085 0.000477 -0.000119 0.001419 -21.605219 0.001419 413.762085
[R_Toe1_03]
119 464.317810 0.000000 0.001088 0.008793 74.659645 0.008793 464.317810
120 464.317810 0.000000 0.001088 0.014414 80.659798 0.014414 464.317810
121 464.317810 0.000000 0.001088 -0.013738 84.503922 -0.010237 464.317810
[R_Toe2_02]
119 342.234741 -0.000954 0.000238 -0.002342 -75.572517 -0.002342 342.234741
120 342.234741 -0.000954 0.000238 -0.002334 -78.678131 -0.002334 342.234741
121 342.234741 -0.000954 0.000238 -0.002332 -80.202011 -0.002332 342.234741
[R_Toe2_03]
119 420.210846 0.000715 -0.000268 -179.985001 85.032730 -179.988495 420.210846
120 420.210846 0.000715 -0.000268 -179.994614 71.745430 -179.998154 420.210846
121 420.210846 0.000715 -0.000268 -179.995911 60.934898 -179.999512 420.210846
[R_Toe3_02]
119 329.270355 -0.000477 -0.000954 0.001179 -79.319069 0.001179 329.270355
120 329.270355 -0.000477 -0.000954 0.001176 -82.116463 0.001176 329.270355
121 329.270355 -0.000477 -0.000954 0.001175 -83.600639 0.001175 329.270355
[R_Toe3_03]
119 439.137939 0.000238 0.001431 -179.992569 82.831001 -179.989044 439.137939
120 439.137939 0.000238 0.001431 -179.998245 71.257904 -179.994705 439.137939
121 439.137939 0.000238 0.001431 -179.999435 61.889771 -179.995834 439.137939
[Rear_Leg02]
119 1162.777710 -0.029802 0.005960 25.654055 -0.174613 -141.752686 1162.777710
120 1162.777710 -0.029802 0.005960 25.479177 2.368710 -146.943527 1162.777710
121 1162.777710 -0.029802 0.005960 25.073660 4.885705 -152.156693 1162.777710
[Rear_Leg03]
119 607.192505 -0.013351 -0.073195 0.009841 -0.006269 81.349213 607.192505
120 607.192505 -0.013351 -0.073195 0.009849 -0.006257 81.212341 607.192505
121 607.192505 -0.013351 -0.073195 0.006672 -0.009984 80.737633 607.192505
[Rear_Leg04]
119 995.874512 -0.020504 -0.011921 -0.043417 -0.011176 116.947609 995.874573
120 995.874512 -0.020504 -0.011921 -0.040485 -0.010427 121.425598 995.874573
121 995.874512 -0.020504 -0.011921 -0.037504 -0.009908 125.903595 995.874573
[Rear_Foot]
119 3096.176270 -0.067472 -0.041425 -149.579224 46.062149 43.096909 3096.176270
120 3096.176270 -0.067472 -0.041425 -150.668518 44.790489 44.045918 3096.176270
121 3096.176270 -0.067472 -0.041425 -151.898895 43.050739 44.855209 3096.176270
[planeAlignerCenter]
119 0.350077 0.966311 -838.790894 0.000009 0.000003 -179.999985 838.791565
120 0.350077 0.966311 -838.790894 0.000009 0.000003 -179.999985 838.791565
121 0.350077 0.966311 -838.790894 0.000009 0.000003 -179.999985 838.791565
[Rear_Toe1_01]
119 0.653352 83.966492 -371.173737 -0.219880 23.753519 89.350906 380.553192
120 0.653352 83.966492 -371.173737 -0.238852 19.704214 89.203682 380.553192
121 0.653352 83.966492 -371.173737 -0.241008 18.282290 89.147827 380.553192
[Rear_Toe2_01]
119 178.200760 -294.826019 -362.060547 -1.871703 36.834179 -70.821167 499.765686
120 178.200760 -294.826019 -362.060547 -1.882168 30.860725 -70.116196 499.765686
121 178.200760 -294.826019 -362.060547 -1.983623 28.204720 -69.865997 499.765686
[Rear_Toe3_01]
119 -153.359680 -308.780914 -362.060852 1.644307 36.703701 -110.013634 499.952881
120 -153.359680 -308.780914 -362.060852 1.630272 30.587429 -110.373795 499.952881
121 -153.359680 -308.780914 -362.060852 1.698269 27.864685 -110.477028 499.952881
[planeLockWeightCenter]
119 -0.000062 0.000238 0.000000 -0.011814 -0.004373 -0.000015 0.000246
120 -0.000062 0.000238 0.000000 -0.011814 -0.004373 -0.000015 0.000246
121 -0.000062 0.000238 0.000000 -0.011814 -0.004373 -0.000015 0.000246
[Rear_Toe1_02]
119 379.707825 0.194073 0.000477 -0.004351 -33.583458 0.003047 379.707855
120 379.707825 0.194073 0.000477 -0.004205 -33.582520 0.003003 379.707855
121 379.707825 0.194073 0.000477 -0.004059 -33.581600 0.002959 379.707855
[Rear_Toe1_03]
119 500.129700 0.165701 0.000119 0.009980 76.493240 0.009980 500.129761
120 500.129700 0.165701 0.000119 0.011366 78.146317 0.011366 500.129761
121 500.129700 0.165701 0.000119 0.011829 78.612076 0.011829 500.129761
[Rear_Toe2_02]
119 340.494507 0.000238 -0.000954 -0.002324 -86.751160 -0.002324 340.494507
120 340.494507 0.000238 -0.000954 0.001174 -88.899788 0.001174 340.494507
121 340.494507 0.000238 -0.000954 0.000000 -89.565689 -0.004646 340.494507
[Rear_Toe2_03]
119 433.103577 0.000000 0.000238 -179.993347 76.543503 -179.996857 433.103546
120 433.103577 0.000000 0.000238 -179.994888 70.166489 -179.998444 433.103546
121 433.103577 0.000000 0.000238 -179.995209 67.933388 -179.998779 433.103546
[Rear_Toe3_02]
119 340.494141 -0.000358 -0.000477 0.001174 -87.180542 0.001174 340.494171
120 340.494141 -0.000358 -0.000477 0.001174 -89.357147 0.001174 340.494171
121 340.494141 -0.000358 -0.000477 0.000000 -89.951546 0.004646 340.494171
[Rear_Toe3_03]
119 433.103577 0.001431 -0.000238 -179.997253 75.364006 -179.993729 433.103546
120 433.103577 0.001431 -0.000238 -179.998672 68.680397 -179.995117 433.103546
121 433.103577 0.001431 -0.000238 -179.998978 66.324913 -179.995422 433.103546
[Back_Bone]
119 1312.175781 -701.934692 0.000954 1.396176 -0.087537 -82.059532 1488.125488
120 1312.175781 -701.934692 0.000954 1.350814 0.014635 -86.888107 1488.125488
121 1312.175781 -701.934692 0.000954 1.280673 0.130373 -92.797325 1488.125488
[Head]
119 1406.159424 809.709290 0.001431 2.012630 -1.620973 -2.262971 1622.625488
120 1406.159424 809.709290 0.001431 1.704143 -1.583669 -1.842342 1622.625488
121 1406.159424 809.709290 0.001431 1.381749 -1.552515 -0.734283 1622.625488
[Motor_Bone]
119 1158.364380 -417.834747 0.000477 -0.128156 0.083243 -105.906898 1231.419434
120 1158.364380 -417.834747 0.000477 -0.129370 0.083508 -105.906578 1231.419434
121 1158.364380 -417.834747 0.000477 -0.130583 0.083772 -105.906242 1231.419434
[Ping_Mechanism]
119 1379.792114 -188.908966 9.446873 0.000103 -0.000053 82.120995 1392.696045
120 1352.749390 -377.469788 9.720015 0.000103 -0.000053 82.120995 1404.460327
121 1337.343628 -448.468781 10.577414 0.000103 -0.000053 82.120995 1410.575684
[BN_LookIK]
119 193.241119 1380.371704 -0.002861 0.000000 89.965736 -31.038179 1393.832153
120 193.241119 1380.371704 -0.002861 0.000000 89.965736 -31.038179 1393.832153
121 193.241119 1380.371704 -0.002861 0.000000 89.965736 -31.038179 1393.832153
[bottomMouth]
119 -435.092926 615.759399 -0.000954 -0.000022 0.000016 73.527184 753.966492
120 -435.092926 615.759399 -0.000954 -0.000022 0.000016 73.527184 753.966492
121 -435.092926 615.759399 -0.000954 -0.000022 0.000016 73.527184 753.966492
[L_Mouth01]
119 554.440979 7.658243 838.222046 150.204178 23.759130 109.605339 1005.027161
120 554.440979 7.658243 838.222046 150.204178 23.759130 109.605339 1005.027161
121 554.440979 7.658243 838.222046 150.204178 23.759130 109.605339 1005.027161
[L_mouthFront]
119 551.629089 934.514771 339.150421 0.000081 2.804060 79.119301 1136.941284
120 551.629089 934.514771 339.150421 0.000081 2.804060 79.119301 1136.941284
121 551.629089 934.514771 339.150421 0.000081 2.804060 79.119301 1136.941284
[mouthGun]
119 55.332661 1627.420898 0.000000 0.000023 0.000009 -11.038128 1628.361328
120 55.332661 1627.420898 0.000000 0.000023 0.000009 -11.038128 1628.361328
121 55.332661 1627.420898 0.000000 0.000023 0.000009 -11.038128 1628.361328
[R_Mouth01]
119 554.442383 7.659197 -838.223938 29.795891 -23.759109 109.605331 1005.029541
120 554.442383 7.659197 -838.223938 29.795891 -23.759109 109.605331 1005.029541
121 554.442383 7.659197 -838.223938 29.795891 -23.759109 109.605331 1005.029541
[R_mouthFront]
119 551.629089 934.514282 -339.151367 0.000029 -2.803930 79.119133 1136.941162
120 551.629089 934.514282 -339.151367 0.000029 -2.803930 79.119133 1136.941162
121 551.629089 934.514282 -339.151367 0.000029 -2.803930 79.119133 1136.941162
[TopMouth]
119 461.269867 -56.106091 -0.008583 -0.000059 -0.000268 92.025169 464.669525
120 461.269867 -56.106091 -0.008583 -0.000059 -0.000268 92.025169 464.669525
121 461.269867 -56.106091 -0.008583 -0.000059 -0.000268 92.025169 464.669525
[weapon_bone]
119 -987.239868 1448.372803 0.001431 0.000000 89.965736 -31.038221 1752.833740
120 -987.239868 1448.372803 0.001431 0.000000 89.965736 -31.038221 1752.833740
121 -987.239868 1448.372803 0.001431 0.000000 89.965736 -31.038221 1752.833740
